<svg data-v-423bf9ae="" xmlns="http://www.w3.org/2000/svg" viewBox="0 0 451 90" class="iconLeft"><!----><defs data-v-423bf9ae=""><linearGradient data-v-423bf9ae="" gradientTransform="rotate(25)" id="1fd3c368-ffe8-4862-91f1-d3d23003270b" x1="0%" y1="0%" x2="100%" y2="0%"><stop data-v-423bf9ae="" offset="0%" style="stop-color: rgb(233, 13, 202); stop-opacity: 1;"></stop><stop data-v-423bf9ae="" offset="100%" style="stop-color: rgb(21, 54, 241); stop-opacity: 1;"></stop></linearGradient></defs><!----><g data-v-423bf9ae="" id="030cb270-9969-4723-a1e7-d684060abd57" fill="#ffffff" transform="matrix(4.460966289706529,0,0,4.460966289706529,105.00372195522294,1.304832119472536)"><path d="M8.65 11.23C8.51 10.07 8.15 9.32 7.14 8.96C8.43 8.58 9.09 7.77 9.09 6.55C9.09 4.84 7.87 4.16 6.47 3.99C5.95 3.93 5.56 3.92 4.96 3.92L1.12 3.92L1.12 13.58L3.64 13.58L3.64 9.91L4.20 9.91C4.48 9.91 4.72 9.91 5.00 9.93C5.64 9.97 6.06 10.58 6.19 11.65C6.27 12.33 6.41 12.89 6.64 13.58L9.38 13.58C9.00 13.01 8.78 12.32 8.65 11.23ZM3.64 8.09L3.64 5.88L4.62 5.88C4.89 5.88 5.11 5.88 5.29 5.89C5.94 5.95 6.45 6.17 6.45 6.99C6.45 7.80 5.87 8.02 5.22 8.08C5.04 8.09 4.82 8.09 4.55 8.09ZM14.69 13.58L17.15 13.58C17.04 12.75 17.01 12.25 17.01 11.69L17.01 9.59C17.01 9.13 17.00 8.69 16.97 8.32C16.86 6.96 16.04 5.91 13.68 5.91C11.79 5.91 10.23 6.90 10.22 8.65L12.60 8.64C12.64 7.99 12.98 7.62 13.57 7.62C14.11 7.62 14.42 7.95 14.46 8.33C14.49 8.57 14.49 8.72 14.49 8.88L14.49 8.99L14.01 8.99C11.48 8.99 9.97 9.97 9.97 11.56C9.97 13.01 11.13 13.78 12.36 13.78C13.05 13.78 13.68 13.61 14.21 13.27L14.52 12.49ZM13.40 12.07C12.89 12.07 12.54 11.82 12.54 11.37C12.54 10.63 13.36 10.33 14.49 10.42L14.49 10.91C14.49 11.69 13.90 12.07 13.40 12.07ZM19.75 3.07C18.86 3.07 18.45 3.43 18.45 4.30C18.45 5.17 18.86 5.53 19.75 5.53C20.65 5.53 21.06 5.17 21.06 4.30C21.06 3.43 20.65 3.07 19.75 3.07ZM21.01 6.10L18.49 6.10L18.49 13.37C18.49 13.58 18.48 13.85 18.47 14.04C18.40 14.70 17.98 14.85 17.07 14.77L17.07 16.46C17.32 16.51 17.61 16.52 17.91 16.52C20.08 16.52 20.89 15.65 20.99 14.25C21 14 21.01 13.64 21.01 13.36ZM26.85 13.58L29.32 13.58C29.20 12.75 29.18 12.25 29.18 11.69L29.18 9.59C29.18 9.13 29.16 8.69 29.13 8.32C29.02 6.96 28.21 5.91 25.84 5.91C23.95 5.91 22.40 6.90 22.39 8.65L24.77 8.64C24.81 7.99 25.14 7.62 25.73 7.62C26.28 7.62 26.59 7.95 26.63 8.33C26.66 8.57 26.66 8.72 26.66 8.88L26.66 8.99L26.18 8.99C23.65 8.99 22.13 9.97 22.13 11.56C22.13 13.01 23.30 13.78 24.53 13.78C25.21 13.78 25.84 13.61 26.38 13.27L26.68 12.49ZM25.56 12.07C25.06 12.07 24.71 11.82 24.71 11.37C24.71 10.63 25.52 10.33 26.66 10.42L26.66 10.91C26.66 11.69 26.07 12.07 25.56 12.07ZM42.42 3.92L39.90 3.92L39.90 7.87L36.04 7.87L36.04 3.92L33.52 3.92L33.52 13.58L36.04 13.58L36.04 9.83L39.90 9.83L39.90 13.58L42.42 13.58ZM48.31 13.58L50.78 13.58C50.67 12.75 50.64 12.25 50.64 11.69L50.64 9.59C50.64 9.13 50.62 8.69 50.60 8.32C50.48 6.96 49.67 5.91 47.31 5.91C45.42 5.91 43.86 6.90 43.85 8.65L46.23 8.64C46.27 7.99 46.61 7.62 47.19 7.62C47.74 7.62 48.05 7.95 48.09 8.33C48.12 8.57 48.12 8.72 48.12 8.88L48.12 8.99L47.64 8.99C45.11 8.99 43.60 9.97 43.60 11.56C43.60 13.01 44.76 13.78 45.99 13.78C46.68 13.78 47.31 13.61 47.84 13.27L48.15 12.49ZM47.03 12.07C46.52 12.07 46.17 11.82 46.17 11.37C46.17 10.63 46.98 10.33 48.12 10.42L48.12 10.91C48.12 11.69 47.53 12.07 47.03 12.07ZM64.18 7.80C64.01 6.78 63.17 5.91 61.67 5.91C60.98 5.91 60.52 6.06 60.06 6.34L59.28 7.36C58.95 6.54 58.16 5.91 56.88 5.91C56.20 5.91 55.73 6.06 55.27 6.34L54.67 7.31L54.67 6.10L52.15 6.10L52.15 13.58L54.67 13.58L54.67 9.63C54.67 8.36 54.99 7.62 55.80 7.62C56.46 7.62 56.80 8.04 56.88 8.75C56.92 9.13 56.94 9.53 56.94 9.77L56.94 13.58L59.46 13.58L59.46 9.63C59.46 8.36 59.78 7.62 60.59 7.62C61.25 7.62 61.59 8.04 61.67 8.75C61.71 9.13 61.73 9.53 61.73 9.77L61.73 13.58L64.25 13.58L64.25 9.21C64.25 8.61 64.23 8.18 64.18 7.80ZM66.93 3.07C66.15 3.07 65.63 3.54 65.63 4.30C65.63 5.05 66.15 5.53 66.93 5.53C67.72 5.53 68.24 5.05 68.24 4.30C68.24 3.54 67.72 3.07 66.93 3.07ZM68.19 13.58L68.19 6.10L65.67 6.10L65.67 13.58ZM77.56 3.29L75.04 3.29L75.04 7.07L74.55 6.27C74.17 6.05 73.44 5.91 72.83 5.91C70.91 5.91 69.29 7.35 69.29 10.01C69.29 12.22 70.55 13.78 72.58 13.78C73.33 13.78 74.06 13.62 74.48 13.31L75.04 12.49L75.04 13.58L77.56 13.58ZM73.44 12.07C72.56 12.07 71.86 11.28 71.86 9.88C71.86 8.36 72.53 7.62 73.51 7.62C74.27 7.62 75.04 8.12 75.04 9.62L75.04 9.94C75.04 11.51 74.37 12.07 73.44 12.07Z"></path></g><!----><g data-v-423bf9ae="" id="c5a5ece7-18a4-4748-aa3d-f2f3b03a9378" transform="matrix(2.8125,0,0,2.8125,0,0)" stroke="none" fill="#ffffff"><path d="M9.382 8.675h13.943v13.943L32 31.293V0H.707zM22.618 23.325H8.675V9.382L0 .707V32h31.293z"></path></g><!----></svg>